<?xml version="1.0" standalone="no"?>
<!DOCTYPE svg PUBLIC "-//W3C//DTD SVG 20010904//EN"
 "http://www.w3.org/TR/2001/REC-SVG-20010904/DTD/svg10.dtd">
<svg version="1.0" xmlns="http://www.w3.org/2000/svg"
 width="1024.000000pt" height="1024.000000pt" viewBox="200 200 624 624"
 preserveAspectRatio="xMidYMid meet">

<g transform="translate(0.000000,1024.000000) scale(0.100000,-0.100000)"
fill="#4F46E5" stroke="none">
<path d="M5042 7570 c-53 -22 -650 -387 -680 -416 l-33 -33 3 -423 c4 -501
-10 -452 156 -549 59 -34 212 -125 341 -203 216 -128 239 -140 290 -144 l56
-3 255 153 c140 84 291 174 335 200 123 71 125 75 136 215 6 65 7 251 3 413
-7 346 -10 358 -90 405 -27 16 -62 38 -79 51 -29 22 -245 151 -469 281 -93 53
-117 63 -155 62 -26 0 -56 -4 -69 -9z"/>
<path d="M3157 6340 l-27 -21 0 -202 c0 -111 3 -259 7 -330 l6 -127 61 -38
c54 -34 264 -155 621 -357 61 -34 357 -203 660 -376 302 -172 565 -319 585
-326 46 -16 83 -16 124 1 18 8 181 99 362 204 181 104 401 230 489 280 375
211 772 439 1048 602 16 9 17 36 17 326 0 303 -1 317 -21 345 -35 50 1 66
-524 -229 -224 -126 -652 -371 -1188 -681 -125 -72 -236 -131 -247 -131 -11 0
-52 20 -92 44 -40 24 -214 124 -387 222 -173 99 -344 196 -380 218 -36 21
-129 73 -206 115 -77 43 -266 149 -420 236 -488 276 -447 257 -488 225z"/>
<path d="M3160 5217 l-25 -13 0 -304 c0 -168 4 -317 8 -331 10 -37 49 -73 126
-115 73 -41 329 -188 521 -299 69 -40 269 -155 445 -255 176 -101 430 -246
564 -322 278 -160 303 -172 346 -165 17 3 105 48 196 100 90 52 385 221 655
375 271 155 559 321 640 370 82 49 198 115 258 148 60 32 132 80 160 105 l51
47 4 103 c2 57 0 196 -4 308 l-7 205 -28 28 c-16 15 -32 28 -37 28 -15 0
-1088 -609 -1438 -815 -383 -227 -442 -258 -476 -251 -16 3 -125 61 -242 128
-117 67 -376 216 -577 331 -201 115 -396 228 -435 252 -97 58 -559 313 -609
336 -49 22 -63 23 -96 6z"/>
</g>
</svg>
